<svg width="18" height="12" viewBox="0 0 18 12" fill="none" xmlns="http://www.w3.org/2000/svg">
  <path d="M14.327 3.867c-.464 0-.909.087-1.318.245-.32-.713-.598-1.467-.736-2.168A2.417 2.417 0 0 0 9.906 0a.527.527 0 0 0 0 1.055 1.365 1.365 0 0 1 1.193.71.522.522 0 0 0-.04.056l-.163.276-.83 1.395H5.639l-.251-.633h.104a.527.527 0 0 0 0-1.055H3.673a.527.527 0 0 0 0 1.055h.579l.46 1.158A3.677 3.677 0 0 0 0 7.54a3.677 3.677 0 0 0 3.673 3.672 3.678 3.678 0 0 0 3.634-3.145h.969a.527.527 0 0 0 .453-.258l2.772-4.665c.162.503.366 1.007.585 1.488a3.669 3.669 0 0 0-1.431 2.908 3.677 3.677 0 0 0 3.672 3.673A3.677 3.677 0 0 0 18 7.54a3.677 3.677 0 0 0-3.673-3.673zm-10.654 4.2h2.564a2.623 2.623 0 0 1-2.564 2.09A2.621 2.621 0 0 1 1.055 7.54a2.621 2.621 0 0 1 2.618-2.618c1.263 0 2.32.899 2.564 2.09H3.673a.527.527 0 0 0 0 1.055zm4.303-1.055h-.669a3.668 3.668 0 0 0-1.133-2.159.528.528 0 0 0-.02-.063l-.097-.243H9.44L7.976 7.012zm6.351 3.146A2.621 2.621 0 0 1 11.71 7.54c0-.765.33-1.454.854-1.933a23.342 23.342 0 0 0 1.33 2.232.527.527 0 1 0 .868-.599c-.011-.016-.65-.947-1.288-2.174a2.621 2.621 0 0 1 3.473 2.474 2.621 2.621 0 0 1-2.619 2.618z" fill="#67A960"/>
</svg>
